<?xml version="1.0"?>
<svg xmlns="http://www.w3.org/2000/svg" xmlns:xlink="http://www.w3.org/1999/xlink" xmlns:svgjs="http://svgjs.com/svgjs" version="1.1" width="512" height="512" x="0" y="0" viewBox="0 0 511.156 511.156" style="enable-background:new 0 0 512 512" xml:space="preserve" class=""><g><path xmlns="http://www.w3.org/2000/svg" d="m283.532 175.905h-55.908c-17.285 0-31.347-14.063-31.347-31.347v-87.616c0-31.398 25.544-56.942 56.942-56.942h4.719c31.398 0 56.942 25.544 56.942 56.942v87.616c-.001 17.285-14.063 31.347-31.348 31.347z" fill="#186fa2" data-original="#186fa2" style="" class=""/><path xmlns="http://www.w3.org/2000/svg" d="m257.938 0h-2.359v175.905h27.954c17.285 0 31.347-14.063 31.347-31.347v-87.616c-.001-31.398-25.545-56.942-56.942-56.942z" fill="#063651" data-original="#063651" style="" class=""/><path xmlns="http://www.w3.org/2000/svg" d="m255.578 511.156c-42.597 0-77.252-34.654-77.252-77.251s34.655-77.252 77.252-77.252 77.251 34.655 77.251 77.252-34.654 77.251-77.251 77.251z" fill="#fbac5b" data-original="#fbac5b" style="" class=""/><path xmlns="http://www.w3.org/2000/svg" d="m255.578 356.653v154.503c42.597 0 77.251-34.654 77.251-77.251s-34.654-77.252-77.251-77.252z" fill="#fd8f32" data-original="#fd8f32" style="" class=""/><path xmlns="http://www.w3.org/2000/svg" d="m442.747 435.044h-374.338c-7.082 0-13.569-4.776-15.042-11.704-1.458-6.859 1.668-13.629 8.01-16.559 1.505-.976 12.833-8.897 24.174-32.862 20.829-44.01 25.201-106.005 25.201-150.263 0-79.855 64.967-144.82 144.821-144.82 79.665 0 144.512 64.652 144.82 144.245.007.191.011.383.011.575 0 44.258 4.372 106.253 25.201 150.263 11.341 23.965 22.668 31.887 24.174 32.862 6.342 2.93 9.469 9.699 8.01 16.559-1.473 6.927-7.959 11.704-15.042 11.704zm7.2-28.157h.01z" fill="#fddb8d" data-original="#fddb8d" style="" class=""/><path xmlns="http://www.w3.org/2000/svg" d="m449.779 406.781c-1.505-.976-12.833-8.897-24.174-32.862-20.829-44.01-25.201-106.005-25.201-150.263 0-.192-.004-.384-.011-.575-.308-79.591-65.153-144.242-144.815-144.245v356.208h187.169c7.082 0 13.569-4.776 15.042-11.704 1.458-6.86-1.668-13.629-8.01-16.559z" fill="#fbac5b" data-original="#fbac5b" style="" class=""/></g></svg>
